<svg xmlns="http://www.w3.org/2000/svg" xmlns:xlink="http://www.w3.org/1999/xlink" width="1176" height="32"><defs><path id="a" d="M135 3182.5c0-1.93 261.91-3.5 585-3.5s585 1.57 585 3.5-261.91 3.5-585 3.5-585-1.57-585-3.5z"/><path id="c" d="M922 3183c0-2.2 34.47-4 77-4s77 1.8 77 4-34.47 4-77 4-77-1.8-77-4z"/><path id="e" d="M246 3183c0-2.2 34.47-4 77-4s77 1.8 77 4-34.47 4-77 4-77-1.8-77-4z"/><filter id="b" width="140%" height="256%" y="-68%" filterUnits="objectBoundingBox"><feGaussianBlur in="SourceGraphic" result="FeGaussianBlur1018Out" stdDeviation="2 2"/></filter><filter id="d" width="152%" height="392%" x="-16%" y="-136%" filterUnits="objectBoundingBox"><feGaussianBlur in="SourceGraphic" result="FeGaussianBlur1025Out" stdDeviation="5 5"/></filter><filter id="f" width="152%" height="392%" x="-16%" y="-136%" filterUnits="objectBoundingBox"><feGaussianBlur in="SourceGraphic" result="FeGaussianBlur1032Out" stdDeviation="5 5"/></filter></defs><use fill="#212020" xlink:href="#a" filter="url(#b)" opacity=".5" transform="translate(-132 -3167)"/><use xlink:href="#c" filter="url(#d)" opacity=".3" transform="translate(-132 -3167)"/><use xlink:href="#e" filter="url(#f)" opacity=".3" transform="translate(-132 -3167)"/></svg>